<svg xmlns="http://www.w3.org/2000/svg" viewBox="0 0 256 256" role="img" aria-labelledby="title desc">
  <title id="title">Orbit mark</title>
  <desc id="desc">A bright node orbiting a central repository core.</desc>
  <defs>
    <linearGradient id="core" x1="62" y1="48" x2="194" y2="210" gradientUnits="userSpaceOnUse">
      <stop offset="0" stop-color="#00d4ff"/>
      <stop offset="0.48" stop-color="#3ddc97"/>
      <stop offset="1" stop-color="#f5b841"/>
    </linearGradient>
    <linearGradient id="orbit" x1="18" y1="50" x2="238" y2="202" gradientUnits="userSpaceOnUse">
      <stop offset="0" stop-color="#5b6cff"/>
      <stop offset="0.5" stop-color="#00d4ff"/>
      <stop offset="1" stop-color="#3ddc97"/>
    </linearGradient>
  </defs>
  <rect width="256" height="256" rx="48" fill="#08111f"/>
  <path d="M35 151c-9-23 23-56 72-74 49-19 98-16 107 7 9 23-23 56-72 74-49 19-98 16-107-7Z" fill="none" stroke="url(#orbit)" stroke-width="10"/>
  <path d="M47 101c14-20 61-20 107 1s75 54 61 75c-14 20-61 20-107-1s-75-54-61-75Z" fill="none" stroke="#f5b841" stroke-width="8" opacity=".85"/>
  <circle cx="128" cy="128" r="46" fill="url(#core)"/>
  <path d="M104 116h48v12h-48zM104 140h48v12h-48z" fill="#08111f"/>
  <circle cx="205" cy="76" r="16" fill="#f4f7fb"/>
  <circle cx="205" cy="76" r="6" fill="#5b6cff"/>
</svg>
