<svg xmlns="http://www.w3.org/2000/svg" viewBox="0 0 1200 630" role="img" aria-labelledby="title desc">
  <title id="title">Orbit social card</title>
  <desc id="desc">A branded preview card for Orbit.</desc>
  <defs>
    <linearGradient id="bg" x1="0" y1="0" x2="1200" y2="630" gradientUnits="userSpaceOnUse">
      <stop offset="0" stop-color="#08111f"/>
      <stop offset="0.52" stop-color="#102237"/>
      <stop offset="1" stop-color="#123329"/>
    </linearGradient>
    <linearGradient id="core" x1="746" y1="150" x2="1014" y2="452" gradientUnits="userSpaceOnUse">
      <stop offset="0" stop-color="#00d4ff"/>
      <stop offset="0.48" stop-color="#3ddc97"/>
      <stop offset="1" stop-color="#f5b841"/>
    </linearGradient>
  </defs>
  <rect width="1200" height="630" fill="url(#bg)"/>
  <g opacity=".16" fill="none" stroke="#f4f7fb" stroke-width="1">
    <path d="M0 126h1200M0 252h1200M0 378h1200M0 504h1200"/>
    <path d="M150 0v630M300 0v630M450 0v630M600 0v630M750 0v630M900 0v630M1050 0v630"/>
  </g>
  <g transform="translate(712 108)">
    <path d="M34 248c-23-59 58-142 181-189 124-47 249-39 272 20 23 59-58 142-181 189-124 47-249 39-272-20Z" fill="none" stroke="#00d4ff" stroke-width="18"/>
    <path d="M66 122c37-52 154-49 264 2 110 51 172 131 135 183-37 52-154 49-264-2C91 254 29 174 66 122Z" fill="none" stroke="#f5b841" stroke-width="16"/>
    <circle cx="260" cy="205" r="104" fill="url(#core)"/>
    <path d="M213 178h94v22h-94zM213 222h94v22h-94z" fill="#08111f"/>
    <circle cx="420" cy="92" r="34" fill="#f4f7fb"/>
    <circle cx="420" cy="92" r="12" fill="#5b6cff"/>
  </g>
  <text x="80" y="170" fill="#f4f7fb" font-family="Inter, ui-sans-serif, system-ui, -apple-system, BlinkMacSystemFont, Segoe UI, sans-serif" font-size="84" font-weight="850" letter-spacing="0">Orbit</text>
  <text x="84" y="235" fill="#3ddc97" font-family="Inter, ui-sans-serif, system-ui, -apple-system, BlinkMacSystemFont, Segoe UI, sans-serif" font-size="34" font-weight="700" letter-spacing="0">An agent economy that lives inside GitHub</text>
  <text x="84" y="322" fill="#d7e5f2" font-family="Inter, ui-sans-serif, system-ui, -apple-system, BlinkMacSystemFont, Segoe UI, sans-serif" font-size="30" font-weight="500" letter-spacing="0">Manages AI cost. Prepares Clanker launch.</text>
  <text x="84" y="369" fill="#d7e5f2" font-family="Inter, ui-sans-serif, system-ui, -apple-system, BlinkMacSystemFont, Segoe UI, sans-serif" font-size="30" font-weight="500" letter-spacing="0">Routes WETH rewards and proves every cycle.</text>
  <rect x="84" y="455" width="278" height="58" rx="12" fill="#f5b841"/>
  <text x="116" y="493" fill="#08111f" font-family="Inter, ui-sans-serif, system-ui, -apple-system, BlinkMacSystemFont, Segoe UI, sans-serif" font-size="24" font-weight="800" letter-spacing="0">repo-native economy</text>
</svg>
