<svg xmlns="http://www.w3.org/2000/svg" viewBox="0 0 1440 860" preserveAspectRatio="xMidYMid slice" role="img" aria-labelledby="title desc">
  <title id="title">Orbit hero scene</title>
  <desc id="desc">A glowing autonomous repository node with orbiting issue and commit signals.</desc>
  <defs>
    <linearGradient id="bg" x1="0" y1="0" x2="1440" y2="860" gradientUnits="userSpaceOnUse">
      <stop offset="0" stop-color="#08111f"/>
      <stop offset=".56" stop-color="#11233a"/>
      <stop offset="1" stop-color="#12342a"/>
    </linearGradient>
    <linearGradient id="core" x1="815" y1="214" x2="1120" y2="584" gradientUnits="userSpaceOnUse">
      <stop offset="0" stop-color="#00d4ff"/>
      <stop offset=".52" stop-color="#3ddc97"/>
      <stop offset="1" stop-color="#f5b841"/>
    </linearGradient>
    <filter id="glow" x="-40%" y="-40%" width="180%" height="180%">
      <feGaussianBlur stdDeviation="14" result="blur"/>
      <feColorMatrix in="blur" type="matrix" values="0 0 0 0 0.02 0 0 0 0 0.82 0 0 0 0 1 0 0 0 .65 0"/>
      <feMerge>
        <feMergeNode/>
        <feMergeNode in="SourceGraphic"/>
      </feMerge>
    </filter>
  </defs>
  <rect width="1440" height="860" fill="url(#bg)"/>
  <g opacity=".18" fill="none" stroke="#e9f3fb" stroke-width="1">
    <path d="M0 172h1440M0 344h1440M0 516h1440M0 688h1440"/>
    <path d="M180 0v860M360 0v860M540 0v860M720 0v860M900 0v860M1080 0v860M1260 0v860"/>
  </g>
  <g fill="none" stroke-linecap="round">
    <path d="M798 470c-42-102 82-237 276-300 194-64 385-31 427 72 41 102-82 237-276 300-194 64-385 31-427-72Z" stroke="#00d4ff" stroke-width="19" opacity=".92"/>
    <path d="M840 268c58-78 234-65 394 28 159 93 241 232 183 310-58 78-234 65-394-28-159-93-241-232-183-310Z" stroke="#f5b841" stroke-width="16" opacity=".88"/>
    <path d="M760 360c80-96 283-136 454-90 171 45 244 159 164 255-80 96-283 136-454 90-171-45-244-159-164-255Z" stroke="#5b6cff" stroke-width="11" opacity=".72"/>
  </g>
  <g filter="url(#glow)">
    <circle cx="1128" cy="421" r="142" fill="url(#core)"/>
    <path d="M1064 377h128v28h-128zM1064 437h128v28h-128z" fill="#08111f"/>
  </g>
  <g>
    <circle cx="1368" cy="250" r="42" fill="#f4f7fb"/>
    <circle cx="1368" cy="250" r="15" fill="#5b6cff"/>
    <rect x="704" y="176" width="204" height="74" rx="8" fill="#0f1d2d" stroke="#26394d"/>
    <text x="730" y="220" fill="#d7e5f2" font-family="ui-monospace, SFMono-Regular, Menlo, Consolas, monospace" font-size="22">issue #184</text>
    <rect x="870" y="648" width="244" height="74" rx="8" fill="#0f1d2d" stroke="#26394d"/>
    <text x="898" y="692" fill="#d7e5f2" font-family="ui-monospace, SFMono-Regular, Menlo, Consolas, monospace" font-size="22">proof saved</text>
    <rect x="1184" y="604" width="226" height="74" rx="8" fill="#0f1d2d" stroke="#26394d"/>
    <text x="1212" y="648" fill="#d7e5f2" font-family="ui-monospace, SFMono-Regular, Menlo, Consolas, monospace" font-size="22">commit trail</text>
  </g>
</svg>
