<svg xmlns="http://www.w3.org/2000/svg" viewBox="0 0 820 220" role="img" aria-labelledby="title desc">
  <title id="title">Orbit logo</title>
  <desc id="desc">Orbit wordmark with orbital node icon.</desc>
  <defs>
    <linearGradient id="core" x1="42" y1="38" x2="158" y2="176" gradientUnits="userSpaceOnUse">
      <stop offset="0" stop-color="#00d4ff"/>
      <stop offset="0.48" stop-color="#3ddc97"/>
      <stop offset="1" stop-color="#f5b841"/>
    </linearGradient>
    <linearGradient id="orbit" x1="14" y1="46" x2="187" y2="158" gradientUnits="userSpaceOnUse">
      <stop offset="0" stop-color="#5b6cff"/>
      <stop offset="0.5" stop-color="#00d4ff"/>
      <stop offset="1" stop-color="#3ddc97"/>
    </linearGradient>
  </defs>
  <rect width="820" height="220" rx="32" fill="#08111f"/>
  <g transform="translate(34 24)">
    <path d="M17 107c-7-19 19-46 59-61 40-16 81-13 88 6 8 19-18 46-59 61-40 16-81 13-88-6Z" fill="none" stroke="url(#orbit)" stroke-width="8"/>
    <path d="M26 66c12-17 51-16 88 1s62 45 50 62c-12 17-51 16-88-1S15 83 26 66Z" fill="none" stroke="#f5b841" stroke-width="7" opacity=".85"/>
    <circle cx="94" cy="88" r="38" fill="url(#core)"/>
    <path d="M74 78h40v10H74zM74 98h40v10H74z" fill="#08111f"/>
    <circle cx="157" cy="45" r="13" fill="#f4f7fb"/>
    <circle cx="157" cy="45" r="5" fill="#5b6cff"/>
  </g>
  <text x="235" y="113" fill="#f4f7fb" font-family="Inter, ui-sans-serif, system-ui, -apple-system, BlinkMacSystemFont, Segoe UI, sans-serif" font-size="64" font-weight="800" letter-spacing="0">Orbit</text>
  <text x="238" y="153" fill="#9fb3c8" font-family="Inter, ui-sans-serif, system-ui, -apple-system, BlinkMacSystemFont, Segoe UI, sans-serif" font-size="24" font-weight="500" letter-spacing="0">autonomous GitHub economy</text>
</svg>
